<?xml version="1.0" encoding="utf-8"?>
<!-- Generator: Adobe Illustrator 20.1.0, SVG Export Plug-In . SVG Version: 6.00 Build 0)  -->
<svg version="1.1" xmlns="http://www.w3.org/2000/svg" xmlns:xlink="http://www.w3.org/1999/xlink" x="0px" y="0px" width="2800px"
	 height="2800px" viewBox="0 0 2800 2800" style="enable-background:new 0 0 2800 2800;" xml:space="preserve">
<style type="text/css">
	.st0{fill:#122236;}
	.st1{clip-path:url(#SVGID_2_);fill:#152A45;}
	.st2{clip-path:url(#SVGID_2_);fill:#173555;}
	.st3{clip-path:url(#SVGID_2_);fill:#FFFFFF;}
	.st4{clip-path:url(#SVGID_2_);}
	.st5{fill:#FFFFFF;}
	.st6{clip-path:url(#SVGID_2_);fill:#1D3F5E;}
	.st7{clip-path:url(#SVGID_2_);fill:#6482B8;}
	.st8{fill:#5AC2DA;}
	.st9{fill:#94D3DF;}
	.st10{clip-path:url(#SVGID_2_);fill:#FDC84C;}
	.st11{clip-path:url(#SVGID_2_);fill:#EF7E74;}
	.st12{clip-path:url(#SVGID_2_);fill:#EB5D78;}
	.st13{fill:#EF7E74;}
	.st14{fill:#EB5D78;}
	.st15{fill:#FDC84C;}
	.st16{fill:#C7DEEF;}
	.st17{fill:#173555;}
	.st18{fill:#6482B8;}
</style>
<g id="Capa_2">
	<rect x="-47" y="-47" class="st0" width="2894.1" height="2894.1"/>
</g>
<g id="Capa_4">
	<g>
		<defs>
			<rect id="SVGID_1_" x="-47" y="-47" width="2894.1" height="2894.1"/>
		</defs>
		<clipPath id="SVGID_2_">
			<use xlink:href="#SVGID_1_"  style="overflow:visible;"/>
		</clipPath>
		<path class="st1" d="M1464.5,437c-67.3,148.2-220.9,233.5-360,318.1c-139.1,84.6-284.1,195.5-311.1,356.1
			c-28.7,171.2-182.6,291.6-335.1,374.4c-152.6,82.8-321.6,150.6-430.5,285.7C-94.4,1922.8-117,2130-122.8,2324.6
			c-4.2,142.6-2,285.4,6.6,427.8c3.5,57.6,8.3,116.4,31.3,169.3c57.9,133.1,216.1,194.7,361.2,198.4s287.9-36.1,432.9-42.4
			c202.7-8.8,401.6,48,598.5,97c78.8,19.6,159.9,38.1,240.4,28c80.5-10.1,161.5-54.6,193.2-129.4
			c42.8-101.1,160.2-150.2,218.4-243.4c83-133,22.7-308.4,57.7-461.2c50.1-218.9,278.2-343.9,401.9-531.4
			c93.9-142.3,124.6-317,203-468.5c105.5-203.8,289.9-353.2,469.1-496.4c149.9-119.8,243.2-305.2,259-496.4s-43.9-386.2-156.9-541.3
			C3100-293.7,2954.5-400.9,2796.1-389c-219.1,16.6-438.2,33.2-657.2,49.7c-169.5,12.8-340.6,85-453.6,216
			c-58.9,68.3-118.6,151.7-145.8,237.8C1506.1,220.2,1510.8,334.8,1464.5,437z"/>
		<path class="st2" d="M522.6,942.4c-49.5,94-100.2,187.4-144.3,284.1c-51.3,112.3-93.6,228.6-131.5,346.2
			c-25.6,79.3-49.3,160.1-53.7,243.3c-2.7,51,2.8,104.8,30.9,147.5c43.2,65.7,130.8,89.5,209,81.2c207.9-22,347.8-216.9,526.2-325.9
			c110-67.2,236.2-101.8,358.9-141.6c222-71.9,441.7-165.4,618.3-317.9c117.5-101.4,214-227.4,342.4-314.6
			c56.7-38.6,119.6-69.6,167.4-118.8c81.9-84.4,106.5-209.1,108.8-326.6c2.3-117.5-13.9-235.9,2.6-352.2
			c13.3-93.7,47.5-184.3,51.5-278.8c4-94.5-32.2-200.7-118.5-239.5c-36.8-16.5-78.1-18.9-118.4-21c-179.4-9.5-358.7-18.9-538.2-24.8
			c-94.7-3.1-190.7-5.2-283.2,15.6c-80.5,18.1-156.1,53.1-231.1,87.8c-82.4,38.2-164.8,76.4-247.3,114.6c0,0-0.1,0-0.1,0
			c-61.5,28.6-95,191.1-122,253c-44.6,102-90.4,203.4-137.5,304.3C720.7,555.3,624,750.1,522.6,942.4z"/>
		<circle class="st3" cx="807.1" cy="225.9" r="11.2"/>
		<circle class="st3" cx="650.1" cy="986.9" r="11.2"/>
		<path class="st3" d="M467.5,515c-8.4,0-8.4,13,0,13C475.9,528,475.9,515,467.5,515z"/>
		<path class="st3" d="M323.6,893h-6c-3.4,0-6.7,3-6.5,6.5c0.2,3.5,2.9,6.5,6.5,6.5h6c3.4,0,6.7-3,6.5-6.5
			C329.9,895.9,327.2,893,323.6,893z"/>
		<path class="st3" d="M461.5,1222.9c-8.4,0-8.4,13,0,13C469.9,1235.9,469.9,1222.9,461.5,1222.9z"/>
		<path class="st3" d="M1175.4,845c-8.4,0-8.4,13,0,13C1183.8,858,1183.8,845,1175.4,845z"/>
		<path class="st3" d="M899.5,503h-6c-3.4,0-6.7,3-6.5,6.5c0.2,3.5,2.9,6.5,6.5,6.5h6c3.4,0,6.7-3,6.5-6.5
			C905.8,506,903.1,503,899.5,503z"/>
		<path class="st3" d="M311.6,299.1c-3.5,0.2-6.5,2.9-6.5,6.5v6c0,3.4,3,6.7,6.5,6.5c3.5-0.2,6.5-2.9,6.5-6.5v-6
			C318.1,302.2,315.1,298.9,311.6,299.1z"/>
		<path class="st3" d="M245.6,674.5c-11.6,0-11.6,18,0,18C257.2,692.5,257.2,674.5,245.6,674.5z"/>
		<path class="st3" d="M431.6,1634.3c-11.6,0-11.6,18,0,18C443.1,1652.3,443.2,1634.3,431.6,1634.3z"/>
		<path class="st3" d="M197,1334.5c-13.5,0-13.5,21,0,21C210.5,1355.5,210.5,1334.5,197,1334.5z"/>
		<path class="st3" d="M289,2051.5c-17.4,0-17.4,27,0,27C306.4,2078.5,306.4,2051.5,289,2051.5z"/>
		<path class="st3" d="M1130.5,2535.5c-2.6-2.4-5.9-4-9.5-4h-4c-3.5,0-7.1,1.5-9.5,4c-1.3,1.2-2.2,2.7-2.8,4.3
			c-0.8,1.6-1.2,3.3-1.2,5.2c0.2,3.5,1.3,7.1,4,9.5c2.6,2.4,5.9,4,9.5,4h4c3.5,0,7.1-1.5,9.5-4c1.3-1.2,2.2-2.7,2.8-4.3
			c0.8-1.6,1.2-3.3,1.2-5.2C1134.3,2541.5,1133.2,2537.9,1130.5,2535.5z"/>
		<path class="st3" d="M337,2639.5c-17.4,0-17.4,27,0,27C354.4,2666.5,354.4,2639.5,337,2639.5z"/>
		<path class="st3" d="M2337,1887.5c-17.4,0-17.4,27,0,27C2354.4,1914.5,2354.4,1887.5,2337,1887.5z"/>
		<path class="st3" d="M2550.5,2347.5c-1.2-1.3-2.7-2.2-4.3-2.8c-1.6-0.8-3.3-1.2-5.2-1.2c-3.5,0.2-7.1,1.3-9.5,4
			c-2.4,2.6-4,5.9-4,9.5v4c0,3.5,1.5,7.1,4,9.5c1.2,1.3,2.7,2.2,4.3,2.8c1.6,0.8,3.3,1.2,5.2,1.2c3.5-0.2,7.1-1.3,9.5-4
			c2.4-2.6,4-5.9,4-9.5v-4C2554.5,2353.5,2553,2349.9,2550.5,2347.5z"/>
		<path class="st3" d="M2217,2531.5c-17.4,0-17.4,27,0,27C2234.4,2558.5,2234.4,2531.5,2217,2531.5z"/>
		<path class="st3" d="M690.5,615.5c-1.2-1.3-2.7-2.2-4.3-2.8c-1.6-0.8-3.3-1.2-5.2-1.2c-3.5,0.2-7.1,1.3-9.5,4
			c-2.4,2.6-4,5.9-4,9.5v4c0,3.5,1.5,7.1,4,9.5c1.2,1.3,2.7,2.2,4.3,2.8c1.6,0.8,3.3,1.2,5.2,1.2c3.5-0.2,7.1-1.3,9.5-4
			c2.4-2.6,4-5.9,4-9.5v-4C694.5,621.5,693,617.9,690.5,615.5z"/>
		<path class="st3" d="M1473,1231.5c-17.4,0-17.4,27,0,27C1490.4,1258.5,1490.4,1231.5,1473,1231.5z"/>
		<path class="st3" d="M926.5,1427.5c-1.2-1.3-2.7-2.2-4.3-2.8c-1.6-0.8-3.3-1.2-5.2-1.2c-3.5,0.2-7.1,1.3-9.5,4
			c-2.4,2.6-4,5.9-4,9.5v4c0,3.5,1.5,7.1,4,9.5c1.2,1.3,2.7,2.2,4.3,2.8c1.6,0.8,3.3,1.2,5.2,1.2c3.5-0.2,7.1-1.3,9.5-4
			c2.4-2.6,4-5.9,4-9.5v-4C930.5,1433.5,929,1429.9,926.5,1427.5z"/>
		<path class="st3" d="M105,883.5c-17.4,0-17.4,27,0,27C122.4,910.5,122.4,883.5,105,883.5z"/>
		<path class="st3" d="M373,163.5c-17.4,0-17.4,27,0,27C390.4,190.5,390.4,163.5,373,163.5z"/>
		<path class="st3" d="M81,463.5c-17.4,0-17.4,27,0,27C98.4,490.5,98.4,463.5,81,463.5z"/>
		<path class="st3" d="M1686.5,243.5c-1.2-1.3-2.7-2.2-4.3-2.8c-1.6-0.8-3.3-1.2-5.2-1.2c-3.5,0.2-7.1,1.3-9.5,4
			c-2.4,2.6-4,5.9-4,9.5v4c0,3.5,1.5,7.1,4,9.5c1.2,1.3,2.7,2.2,4.3,2.8c1.6,0.8,3.3,1.2,5.2,1.2c3.5-0.2,7.1-1.3,9.5-4
			c2.4-2.6,4-5.9,4-9.5v-4C1690.5,249.5,1689,245.9,1686.5,243.5z"/>
		<path class="st3" d="M1477,663.5c-17.4,0-17.4,27,0,27C1494.4,690.5,1494.4,663.5,1477,663.5z"/>
		<path class="st3" d="M2338.5,683.5c-1.2-1.3-2.7-2.2-4.3-2.8c-1.6-0.8-3.3-1.2-5.2-1.2c-3.5,0.2-7.1,1.3-9.5,4
			c-2.4,2.6-4,5.9-4,9.5v4c0,3.5,1.5,7.1,4,9.5c1.2,1.3,2.7,2.2,4.3,2.8c1.6,0.8,3.3,1.2,5.2,1.2c3.5-0.2,7.1-1.3,9.5-4
			c2.4-2.6,4-5.9,4-9.5v-4C2342.5,689.5,2341,685.9,2338.5,683.5z"/>
		<path class="st3" d="M2522.5,287.5c-2.6-2.4-5.9-4-9.5-4h-4c-3.5,0-7.1,1.5-9.5,4c-1.3,1.2-2.2,2.7-2.8,4.3
			c-0.8,1.6-1.2,3.3-1.2,5.2c0.2,3.5,1.3,7.1,4,9.5c2.6,2.4,5.9,4,9.5,4h4c3.5,0,7.1-1.5,9.5-4c1.3-1.2,2.2-2.7,2.8-4.3
			c0.8-1.6,1.2-3.3,1.2-5.2C2526.3,293.5,2525.2,289.9,2522.5,287.5z"/>
		<path class="st3" d="M2553,1391.5c-17.4,0-17.4,27,0,27C2570.4,1418.5,2570.4,1391.5,2553,1391.5z"/>
		<path class="st3" d="M1717,1663c-12.9,0-12.9,20,0,20C1729.9,1683,1729.9,1663,1717,1663z"/>
		<path class="st3" d="M1121,2047c-12.9,0-12.9,20,0,20C1133.9,2067,1133.9,2047,1121,2047z"/>
		<path class="st3" d="M561,2327c-12.9,0-12.9,20,0,20C573.9,2347,573.9,2327,561,2327z"/>
		<path class="st3" d="M636.1,2673.9c-1.7-1.7-4.6-3-7.1-2.9c-2.6,0.1-5.3,1-7.1,2.9c-1.8,2-2.9,4.4-2.9,7.1v4
			c0,2.6,1.1,5.3,2.9,7.1c1.7,1.7,4.6,3,7.1,2.9c2.6-0.1,5.3-1,7.1-2.9c1.8-2,2.9-4.4,2.9-7.1v-4
			C639,2678.4,637.9,2675.7,636.1,2673.9z"/>
		<path class="st3" d="M148.1,2469.9c-2-1.8-4.4-2.9-7.1-2.9h-4c-2.6,0-5.3,1.1-7.1,2.9c-1.7,1.7-3,4.6-2.9,7.1
			c0.1,2.6,1,5.3,2.9,7.1c2,1.8,4.4,2.9,7.1,2.9h4c2.6,0,5.3-1.1,7.1-2.9c1.7-1.7,3-4.6,2.9-7.1
			C150.9,2474.4,150,2471.7,148.1,2469.9z"/>
		<path class="st3" d="M2637,1991c-12.9,0-12.9,20,0,20C2649.9,2011,2649.9,1991,2637,1991z"/>
		<path class="st3" d="M2557,2567c-12.9,0-12.9,20,0,20C2569.9,2587,2569.9,2567,2557,2567z"/>
		<path class="st3" d="M1685,2275c-12.9,0-12.9,20,0,20C1697.9,2295,1697.9,2275,1685,2275z"/>
		<path class="st3" d="M920.1,961.9c-1.7-1.7-4.6-3-7.1-2.9c-2.6,0.1-5.3,1-7.1,2.9c-1.8,2-2.9,4.4-2.9,7.1v4c0,2.6,1.1,5.3,2.9,7.1
			c1.7,1.7,4.6,3,7.1,2.9c2.6-0.1,5.3-1,7.1-2.9c1.8-2,2.9-4.4,2.9-7.1v-4C923,966.4,921.9,963.7,920.1,961.9z"/>
		<path class="st3" d="M1233,1251c-12.9,0-12.9,20,0,20C1245.9,1271,1245.9,1251,1233,1251z"/>
		<path class="st3" d="M457,1475c-12.9,0-12.9,20,0,20C469.9,1495,469.9,1475,457,1475z"/>
		<path class="st3" d="M140.1,1761.9c-1.7-1.7-4.6-3-7.1-2.9c-2.6,0.1-5.3,1-7.1,2.9c-1.8,2-2.9,4.4-2.9,7.1v4
			c0,2.6,1.1,5.3,2.9,7.1c1.7,1.7,4.6,3,7.1,2.9c2.6-0.1,5.3-1,7.1-2.9c1.8-2,2.9-4.4,2.9-7.1v-4
			C143,1766.4,141.9,1763.7,140.1,1761.9z"/>
		<path class="st3" d="M1368.1,165.9c-1.7-1.7-4.6-3-7.1-2.9c-2.6,0.1-5.3,1-7.1,2.9c-1.8,2-2.9,4.4-2.9,7.1v4
			c0,2.6,1.1,5.3,2.9,7.1c1.7,1.7,4.6,3,7.1,2.9c2.6-0.1,5.3-1,7.1-2.9c1.8-2,2.9-4.4,2.9-7.1v-4
			C1371,170.4,1369.9,167.7,1368.1,165.9z"/>
		<path class="st3" d="M1081,551c-12.9,0-12.9,20,0,20C1093.9,571,1093.9,551,1081,551z"/>
		<path class="st3" d="M2193,343c-12.9,0-12.9,20,0,20C2205.9,363,2205.9,343,2193,343z"/>
		<path class="st3" d="M2648.1,673.9c-1.7-1.7-4.6-3-7.1-2.9c-2.6,0.1-5.3,1-7.1,2.9c-1.8,2-2.9,4.4-2.9,7.1v4
			c0,2.6,1.1,5.3,2.9,7.1c1.7,1.7,4.6,3,7.1,2.9c2.6-0.1,5.3-1,7.1-2.9c1.8-2,2.9-4.4,2.9-7.1v-4
			C2651,678.4,2649.9,675.7,2648.1,673.9z"/>
		<path class="st3" d="M2257,1219c-12.9,0-12.9,20,0,20C2269.9,1239,2269.9,1219,2257,1219z"/>
		<path class="st3" d="M1929,819c-12.9,0-12.9,20,0,20C1941.9,839,1941.9,819,1929,819z"/>
		<path class="st3" d="M2009.9,1988.1c-1.3-1.3-2.7-2.7-4-4c-1.3-1.3-3.2-2.1-4.9-2.1c-1.7,0-3.8,0.8-4.9,2.1
			c-2.6,2.8-2.8,7.1,0,9.9l4,4c1.3,1.3,3.2,2.1,4.9,2.1c1.7,0,3.8-0.8,4.9-2.1C2012.5,1995.2,2012.7,1990.8,2009.9,1988.1z"/>
		<path class="st3" d="M2281,2282h-4c-1.8,0-3.7,0.8-4.9,2.1c-1.2,1.2-2.1,3.2-2.1,4.9c0.2,3.8,3.1,7,7,7h4c1.8,0,3.7-0.8,4.9-2.1
			c1.2-1.2,2.1-3.2,2.1-4.9C2287.8,2285.2,2284.9,2282,2281,2282z"/>
		<path class="st3" d="M1817.9,2652.1c-1.3-1.3-2.7-2.7-4-4c-1.3-1.3-3.2-2.1-4.9-2.1c-1.7,0-3.8,0.8-4.9,2.1
			c-2.6,2.8-2.8,7.1,0,9.9l4,4c1.3,1.3,3.2,2.1,4.9,2.1c1.7,0,3.8-0.8,4.9-2.1C1820.5,2659.2,1820.7,2654.8,1817.9,2652.1z"/>
		<path class="st3" d="M1457.9,2620.1c-1.2-1.2-3.2-2.1-4.9-2.1c-3.8,0.2-7,3.1-7,7v4c0,1.8,0.8,3.7,2.1,4.9
			c1.2,1.2,3.2,2.1,4.9,2.1c3.8-0.2,7-3.1,7-7v-4C1460,2623.2,1459.2,2621.3,1457.9,2620.1z"/>
		<path class="st3" d="M1321,2286h-4c-1.8,0-3.7,0.8-4.9,2.1c-1.2,1.2-2.1,3.2-2.1,4.9c0.2,3.8,3.1,7,7,7h4c1.8,0,3.7-0.8,4.9-2.1
			c1.2-1.2,2.1-3.2,2.1-4.9C1327.8,2289.2,1324.9,2286,1321,2286z"/>
		<path class="st3" d="M741.9,2336.1c-1.2-1.2-3.2-2.1-4.9-2.1c-3.8,0.2-7,3.1-7,7v4c0,1.8,0.8,3.7,2.1,4.9c1.2,1.2,3.2,2.1,4.9,2.1
			c3.8-0.2,7-3.1,7-7v-4C744,2339.2,743.2,2337.3,741.9,2336.1z"/>
		<path class="st3" d="M893,2662c-9,0-9,14,0,14C902,2676,902,2662,893,2662z"/>
		<path class="st3" d="M329,2210h-12c-3.8,0-7,3.2-7,7c0,3.8,3.2,7,7,7h12c3.8,0,7-3.2,7-7C336,2213.2,332.8,2210,329,2210z"/>
		<path class="st3" d="M809,1918c-9,0-9,14,0,14C818,1932,818,1918,809,1918z"/>
		<path class="st3" d="M665,1706h-4c-1.8,0-3.7,0.8-4.9,2.1c-1.2,1.2-2.1,3.2-2.1,4.9c0.2,3.8,3.1,7,7,7h4c1.8,0,3.7-0.8,4.9-2.1
			c1.2-1.2,2.1-3.2,2.1-4.9C671.8,1709.2,668.9,1706,665,1706z"/>
		<path class="st3" d="M1253,1818c-9,0-9,14,0,14C1262,1832,1262,1818,1253,1818z"/>
		<path class="st3" d="M1401,1430c-3.8,0.2-7,3.1-7,7v8c0,3.7,3.2,7.2,7,7c3.8-0.2,7-3.1,7-7v-8
			C1408,1433.3,1404.8,1429.8,1401,1430z"/>
		<path class="st3" d="M1509.9,1936.1c-2.8-2.6-7.1-2.8-9.9,0c-1.3,1.3-2.7,2.7-4,4c-1.3,1.3-2.1,3.2-2.1,4.9c0,1.7,0.8,3.8,2.1,4.9
			c2.8,2.6,7.1,2.8,9.9,0l4-4c1.3-1.3,2.1-3.2,2.1-4.9C1512,1939.3,1511.2,1937.2,1509.9,1936.1z"/>
		<path class="st3" d="M1929,1358h-4c-1.8,0-3.7,0.8-4.9,2.1c-1.2,1.2-2.1,3.2-2.1,4.9c0.2,3.8,3.1,7,7,7h4c1.8,0,3.7-0.8,4.9-2.1
			c1.2-1.2,2.1-3.2,2.1-4.9C1935.8,1361.2,1932.9,1358,1929,1358z"/>
		<path class="st3" d="M1733.9,944.1c-1.2-1.2-3.2-2.1-4.9-2.1c-3.8,0.2-7,3.1-7,7v4c0,1.8,0.8,3.7,2.1,4.9c1.2,1.2,3.2,2.1,4.9,2.1
			c3.8-0.2,7-3.1,7-7v-4C1736,947.2,1735.2,945.3,1733.9,944.1z"/>
		<path class="st3" d="M2193.9,1468.1c-2.8-2.6-7.1-2.8-9.9,0c-1.3,1.3-2.7,2.7-4,4c-1.3,1.3-2.1,3.2-2.1,4.9c0,1.7,0.8,3.8,2.1,4.9
			c2.8,2.6,7.1,2.8,9.9,0l4-4c1.3-1.3,2.1-3.2,2.1-4.9C2196,1471.3,2195.2,1469.2,2193.9,1468.1z"/>
		<path class="st3" d="M2621,1006h-4c-1.8,0-3.7,0.8-4.9,2.1c-1.2,1.2-2.1,3.2-2.1,4.9c0.2,3.8,3.1,7,7,7h4c1.8,0,3.7-0.8,4.9-2.1
			c1.2-1.2,2.1-3.2,2.1-4.9C2627.8,1009.2,2624.9,1006,2621,1006z"/>
		<path class="st3" d="M2345,794c-9,0-9,14,0,14C2354,808,2354,794,2345,794z"/>
		<path class="st3" d="M2017.9,624.1c-1.2-1.2-3.2-2.1-4.9-2.1c-3.8,0.2-7,3.1-7,7v4c0,1.8,0.8,3.7,2.1,4.9c1.2,1.2,3.2,2.1,4.9,2.1
			c3.8-0.2,7-3.1,7-7v-4C2020,627.2,2019.2,625.3,2017.9,624.1z"/>
		<path class="st3" d="M2283,989.5c-1.3-2.7-2.7-5.3-4-8c-1.6-3.3-6.5-4.5-9.6-2.5c-3.4,2.2-4.3,6.1-2.5,9.6c1.3,2.7,2.7,5.3,4,8
			c1.6,3.3,6.5,4.5,9.6,2.5C2283.9,996.9,2284.8,993,2283,989.5z"/>
		<path class="st3" d="M1573,994c-9,0-9,14,0,14C1582,1008,1582,994,1573,994z"/>
		<path class="st3" d="M1197,1034c-3.8,0.2-7,3.1-7,7v8c0,3.7,3.2,7.2,7,7c3.8-0.2,7-3.1,7-7v-8
			C1204,1037.3,1200.8,1033.8,1197,1034z"/>
		<path class="st3" d="M1913.9,248.1c-1.2-1.2-3.2-2.1-4.9-2.1c-3.8,0.2-7,3.1-7,7v4c0,1.8,0.8,3.7,2.1,4.9c1.2,1.2,3.2,2.1,4.9,2.1
			c3.8-0.2,7-3.1,7-7v-4C1916,251.2,1915.2,249.3,1913.9,248.1z"/>
		<path class="st3" d="M1945,474c-9,0-9,14,0,14C1954,488,1954,474,1945,474z"/>
		<path class="st3" d="M2493,466h-4c-1.8,0-3.7,0.8-4.9,2.1c-1.2,1.2-2.1,3.2-2.1,4.9c0.2,3.8,3.1,7,7,7h4c1.8,0,3.7-0.8,4.9-2.1
			c1.2-1.2,2.1-3.2,2.1-4.9C2499.8,469.2,2496.9,466,2493,466z"/>
		<path class="st3" d="M1521.9,368.1c-1.2-1.2-3.2-2.1-4.9-2.1c-3.8,0.2-7,3.1-7,7v4c0,1.8,0.8,3.7,2.1,4.9c1.2,1.2,3.2,2.1,4.9,2.1
			c3.8-0.2,7-3.1,7-7v-4C1524,371.2,1523.2,369.3,1521.9,368.1z"/>
		<path class="st3" d="M1029,266h-4c-1.8,0-3.7,0.8-4.9,2.1c-1.2,1.2-2.1,3.2-2.1,4.9c0.2,3.8,3.1,7,7,7h4c1.8,0,3.7-0.8,4.9-2.1
			c1.2-1.2,2.1-3.2,2.1-4.9C1035.8,269.2,1032.9,266,1029,266z"/>
		<path class="st3" d="M341,1083.5c-7.1,0-7.1,11,0,11C348.1,1094.5,348.1,1083.5,341,1083.5z"/>
		<path class="st3" d="M501,827.5c-7.1,0-7.1,11,0,11C508.1,838.5,508.1,827.5,501,827.5z"/>
		<path class="st3" d="M349,503.5c-7.1,0-7.1,11,0,11C356.1,514.5,356.1,503.5,349,503.5z"/>
		<path class="st3" d="M637,335.5h-4c-2.9,0-5.6,2.5-5.5,5.5c0.1,3,2.4,5.5,5.5,5.5h4c2.9,0,5.6-2.5,5.5-5.5
			C642.4,338,640.1,335.5,637,335.5z"/>
		<path class="st3" d="M1169,467.5c-7.1,0-7.1,11,0,11C1176.1,478.5,1176.1,467.5,1169,467.5z"/>
		<path class="st3" d="M929,719.5c-7.1,0-7.1,11,0,11C936.1,730.5,936.1,719.5,929,719.5z"/>
		<path class="st3" d="M753,711.5c-7.1,0-7.1,11,0,11C760.1,722.5,760.1,711.5,753,711.5z"/>
		<path class="st3" d="M705,1291.5c-7.1,0-7.1,11,0,11C712.1,1302.5,712.1,1291.5,705,1291.5z"/>
		<path class="st3" d="M797,1615.5c-3,0.1-5.5,2.4-5.5,5.5v4c0,2.9,2.5,5.6,5.5,5.5c3-0.1,5.5-2.4,5.5-5.5v-4
			C802.5,1618.1,800,1615.4,797,1615.5z"/>
		<path class="st3" d="M1081,1499.5h-4c-2.9,0-5.6,2.5-5.5,5.5c0.1,3,2.4,5.5,5.5,5.5h4c2.9,0,5.6-2.5,5.5-5.5
			C1086.4,1502,1084.1,1499.5,1081,1499.5z"/>
		<path class="st3" d="M1041,1179.5h-4c-2.9,0-5.6,2.5-5.5,5.5c0.1,3,2.4,5.5,5.5,5.5h4c2.9,0,5.6-2.5,5.5-5.5
			C1046.4,1182,1044.1,1179.5,1041,1179.5z"/>
		<path class="st3" d="M1649,1235.5c-3,0.1-5.5,2.4-5.5,5.5v4c0,2.9,2.5,5.6,5.5,5.5c3-0.1,5.5-2.4,5.5-5.5v-4
			C1654.5,1238.1,1652,1235.4,1649,1235.5z"/>
		<path class="st3" d="M1893,1079.5h-4c-2.9,0-5.6,2.5-5.5,5.5c0.1,3,2.4,5.5,5.5,5.5h4c2.9,0,5.6-2.5,5.5-5.5
			C1898.4,1082,1896.1,1079.5,1893,1079.5z"/>
		<path class="st3" d="M2122.3,891.5c0-0.1-0.1-0.2-0.1-0.3c0,0,0,0,0,0c0.3-1.4,0.3-3-0.6-4.2c-0.7-1.1-1.9-2.3-3.3-2.5
			c-1.3-0.2-2.3-0.3-3.5,0.1c-1.1,0.3-2.1,0.9-2.8,1.7c-1.3,1.4-2,3.3-2,5.2c0,1.9,0.7,3.8,2,5.1c1.7,1.8,4.1,2.2,6.4,1.8
			c1.3-0.3,2.6-1.4,3.3-2.5C2122.4,894.6,2122.7,892.8,2122.3,891.5z"/>
		<path class="st3" d="M2105,1227.5h-4c-2.9,0-5.6,2.5-5.5,5.5c0.1,3,2.4,5.5,5.5,5.5h4c2.9,0,5.6-2.5,5.5-5.5
			C2110.4,1230,2108.1,1227.5,2105,1227.5z"/>
		<path class="st3" d="M2476.9,1165.1c-2.2-2-5.6-2.2-7.8,0c-1.3,1.3-2.7,2.7-4,4c-2,2-2.2,5.8,0,7.8c2.2,2,5.6,2.2,7.8,0
			c1.3-1.3,2.7-2.7,4-4C2478.9,1170.9,2479.1,1167.1,2476.9,1165.1z"/>
		<g class="st4">
			<path class="st5" d="M2417,1477.1c2.2-1.9,2.1-5.8,0-7.8c-2.3-2.1-5.5-2.1-7.8,0c-4.4,4-4.4,11.5-0.1,15.5c2.1,2,5.7,2.2,7.8,0
				C2418.9,1482.7,2419.2,1479.2,2417,1477.1C2417,1477.1,2417,1477.1,2417,1477.1z"/>
			<path class="st5" d="M2416.9,1477.2C2416.9,1477.2,2416.9,1477.2,2416.9,1477.2c0,0.1,0,0.1,0,0.1c0,0,0,0,0,0c0,0,0,0.1,0,0.1
				C2416.9,1477.4,2416.9,1477.3,2416.9,1477.2C2416.9,1477.3,2416.9,1477.2,2416.9,1477.2z"/>
		</g>
		<path class="st3" d="M2657,1715.5h-4c-2.9,0-5.6,2.5-5.5,5.5c0.1,3,2.4,5.5,5.5,5.5h4c2.9,0,5.6-2.5,5.5-5.5
			C2662.4,1718,2660.1,1715.5,2657,1715.5z"/>
		<path class="st3" d="M2533,1867.5c-3,0.1-5.5,2.4-5.5,5.5v4c0,2.9,2.5,5.6,5.5,5.5c3-0.1,5.5-2.4,5.5-5.5v-4
			C2538.5,1870.1,2536,1867.4,2533,1867.5z"/>
		<path class="st3" d="M2337,1711.5c-3,0.1-5.5,2.4-5.5,5.5v4c0,2.9,2.5,5.6,5.5,5.5c3-0.1,5.5-2.4,5.5-5.5v-4
			C2342.5,1714.1,2340,1711.4,2337,1711.5z"/>
		<path class="st3" d="M1997,1819.5c-7.1,0-7.1,11,0,11C2004.1,1830.5,2004.1,1819.5,1997,1819.5z"/>
		<path class="st3" d="M1869,1571.5c-7.1,0-7.1,11,0,11C1876.1,1582.5,1876.1,1571.5,1869,1571.5z"/>
		<path class="st3" d="M2025,1607.5h-4c-2.9,0-5.6,2.5-5.5,5.5c0.1,3,2.4,5.5,5.5,5.5h4c2.9,0,5.6-2.5,5.5-5.5
			C2030.4,1610,2028.1,1607.5,2025,1607.5z"/>
		<path class="st3" d="M1861,1863.5c-7.1,0-7.1,11,0,11C1868.1,1874.5,1868.1,1863.5,1861,1863.5z"/>
		<path class="st3" d="M1457,1615.5c-7.1,0-7.1,11,0,11C1464.1,1626.5,1464.1,1615.5,1457,1615.5z"/>
		<path class="st3" d="M1117,1715.5h-4c-2.9,0-5.6,2.5-5.5,5.5c0.1,3,2.4,5.5,5.5,5.5h4c2.9,0,5.6-2.5,5.5-5.5
			C1122.4,1718,1120.1,1715.5,1117,1715.5z"/>
		<path class="st3" d="M1389,1823.5c-7.1,0-7.1,11,0,11C1396.1,1834.5,1396.1,1823.5,1389,1823.5z"/>
		<path class="st3" d="M1269,2083.5c-7.1,0-7.1,11,0,11C1276.1,2094.5,1276.1,2083.5,1269,2083.5z"/>
		<path class="st3" d="M1109,2271.5c-7.1,0-7.1,11,0,11C1116.1,2282.5,1116.1,2271.5,1109,2271.5z"/>
		<path class="st3" d="M961,2395.5c-7.1,0-7.1,11,0,11C968.1,2406.5,968.1,2395.5,961,2395.5z"/>
		<path class="st3" d="M857,2239.5c-7.1,0-7.1,11,0,11C864.1,2250.5,864.1,2239.5,857,2239.5z"/>
		<path class="st3" d="M984.9,2021.1c-2.2-2-5.6-2.2-7.8,0c-1.3,1.3-2.7,2.7-4,4c-2,2-2.2,5.8,0,7.8c2.2,2,5.6,2.2,7.8,0
			c1.3-1.3,2.7-2.7,4-4C986.9,2026.9,987.1,2023.1,984.9,2021.1z"/>
		<path class="st3" d="M953,1863.5c-3,0.1-5.5,2.4-5.5,5.5v4c0,2.9,2.5,5.6,5.5,5.5c3-0.1,5.5-2.4,5.5-5.5v-4
			C958.5,1866.1,956,1863.4,953,1863.5z"/>
		<path class="st3" d="M561,2087.5h-4c-2.9,0-5.6,2.5-5.5,5.5c0.1,3,2.4,5.5,5.5,5.5h4c2.9,0,5.6-2.5,5.5-5.5
			C566.4,2090,564.1,2087.5,561,2087.5z"/>
		<path class="st3" d="M753,2099.5c-7.1,0-7.1,11,0,11C760.1,2110.5,760.1,2099.5,753,2099.5z"/>
		<path class="st3" d="M661,2203.5c-3,0.1-5.5,2.4-5.5,5.5v4c0,2.9,2.5,5.6,5.5,5.5c3-0.1,5.5-2.4,5.5-5.5v-4
			C666.5,2206.1,664,2203.4,661,2203.5z"/>
		<path class="st3" d="M649,2483.5c-7.1,0-7.1,11,0,11C656.1,2494.5,656.1,2483.5,649,2483.5z"/>
		<path class="st3" d="M142.1,1986c-1.3-2.7-2.7-5.3-4-8c-1.3-2.6-5.1-3.5-7.5-2c-2.6,1.7-3.4,4.8-2,7.5c1.3,2.7,2.7,5.3,4,8
			c1.3,2.6,5.1,3.5,7.5,2C142.8,1991.9,143.5,1988.8,142.1,1986z"/>
		<path class="st3" d="M113,2211.5c-3,0.1-5.5,2.4-5.5,5.5v4c0,2.9,2.5,5.6,5.5,5.5c3-0.1,5.5-2.4,5.5-5.5v-4
			C118.5,2214.1,116,2211.4,113,2211.5z"/>
		<path class="st3" d="M373,2395.5c-3,0.1-5.5,2.4-5.5,5.5v4c0,2.9,2.5,5.6,5.5,5.5c3-0.1,5.5-2.4,5.5-5.5v-4
			C378.5,2398.1,376,2395.4,373,2395.5z"/>
		<path class="st3" d="M517,2591.5c-3,0.1-5.5,2.4-5.5,5.5v4c0,2.9,2.5,5.6,5.5,5.5c3-0.1,5.5-2.4,5.5-5.5v-4
			C522.5,2594.1,520,2591.4,517,2591.5z"/>
		<path class="st3" d="M173,2687.5h-4c-2.9,0-5.6,2.5-5.5,5.5c0.1,3,2.4,5.5,5.5,5.5h4c2.9,0,5.6-2.5,5.5-5.5
			C178.4,2690,176.1,2687.5,173,2687.5z"/>
		<path class="st3" d="M509,2751.5c-7.1,0-7.1,11,0,11C516.1,2762.5,516.1,2751.5,509,2751.5z"/>
		<path class="st3" d="M277,2383.5h-4c-2.9,0-5.6,2.5-5.5,5.5c0.1,3,2.4,5.5,5.5,5.5h4c2.9,0,5.6-2.5,5.5-5.5
			C282.4,2386,280.1,2383.5,277,2383.5z"/>
		<path class="st3" d="M1157,2711.5h-4c-2.9,0-5.6,2.5-5.5,5.5c0.1,3,2.4,5.5,5.5,5.5h4c2.9,0,5.6-2.5,5.5-5.5
			C1162.4,2714,1160.1,2711.5,1157,2711.5z"/>
		<path class="st3" d="M1373,2427.5c-3,0.1-5.5,2.4-5.5,5.5v8c0,2.9,2.5,5.6,5.5,5.5c3-0.1,5.5-2.4,5.5-5.5v-8
			C1378.5,2430.1,1376,2427.4,1373,2427.5z"/>
		<path class="st3" d="M1536.9,2109.1c-2.2-2-5.6-2.2-7.8,0c-1.3,1.3-2.7,2.7-4,4c-2,2-2.2,5.8,0,7.8c2.2,2,5.6,2.2,7.8,0
			c1.3-1.3,2.7-2.7,4-4C1538.9,2114.9,1539.1,2111.1,1536.9,2109.1z"/>
		<path class="st3" d="M1777,1967.5c-7.1,0-7.1,11,0,11C1784.1,1978.5,1784.1,1967.5,1777,1967.5z"/>
		<path class="st3" d="M1877,2219.5c-7.1,0-7.1,11,0,11C1884.1,2230.5,1884.1,2219.5,1877,2219.5z"/>
		<path class="st3" d="M1749,2507.5c-7.1,0-7.1,11,0,11C1756.1,2518.5,1756.1,2507.5,1749,2507.5z"/>
		<path class="st3" d="M1536.9,2321.1c-1.3-1.3-2.7-2.7-4-4c-2-2-5.8-2.2-7.8,0c-2,2.2-2.2,5.6,0,7.8c1.3,1.3,2.7,2.7,4,4
			c2,2,5.8,2.2,7.8,0C1538.9,2326.7,1539.1,2323.3,1536.9,2321.1z"/>
		<path class="st3" d="M1609,2667.5c-3,0.1-5.5,2.4-5.5,5.5v8c0,2.9,2.5,5.6,5.5,5.5c3-0.1,5.5-2.4,5.5-5.5v-8
			C1614.5,2670.1,1612,2667.4,1609,2667.5z"/>
		<path class="st3" d="M2237,2683.5h-4c-2.9,0-5.6,2.5-5.5,5.5c0.1,3,2.4,5.5,5.5,5.5h4c2.9,0,5.6-2.5,5.5-5.5
			C2242.4,2686,2240.1,2683.5,2237,2683.5z"/>
		<path class="st3" d="M1937,2487.5c-7.1,0-7.1,11,0,11C1944.1,2498.5,1944.1,2487.5,1937,2487.5z"/>
		<path class="st3" d="M2081,2435.5c-7.1,0-7.1,11,0,11C2088.1,2446.5,2088.1,2435.5,2081,2435.5z"/>
		<path class="st3" d="M2357,2423.5c-7.1,0-7.1,11,0,11C2364.1,2434.5,2364.1,2423.5,2357,2423.5z"/>
		<path class="st3" d="M2437,2667.5h-4c-2.9,0-5.6,2.5-5.5,5.5c0.1,3,2.4,5.5,5.5,5.5h4c2.9,0,5.6-2.5,5.5-5.5
			C2442.4,2670,2440.1,2667.5,2437,2667.5z"/>
		<path class="st3" d="M2721,2711.5c-3,0.1-5.5,2.4-5.5,5.5v4c0,2.9,2.5,5.6,5.5,5.5c3-0.1,5.5-2.4,5.5-5.5v-4
			C2726.5,2714.1,2724,2711.4,2721,2711.5z"/>
		<path class="st3" d="M2673,2427.5c-7.1,0-7.1,11,0,11C2680.1,2438.5,2680.1,2427.5,2673,2427.5z"/>
		<path class="st3" d="M2385,2235.5c-3,0.1-5.5,2.4-5.5,5.5v8c0,2.9,2.5,5.6,5.5,5.5c3-0.1,5.5-2.4,5.5-5.5v-8
			C2390.5,2238.1,2388,2235.4,2385,2235.5z"/>
		<path class="st3" d="M2649,2219.5h-4c-2.9,0-5.6,2.5-5.5,5.5c0.1,3,2.4,5.5,5.5,5.5h4c2.9,0,5.6-2.5,5.5-5.5
			C2654.4,2222,2652.1,2219.5,2649,2219.5z"/>
		<path class="st3" d="M2461,2023.5c-3,0.1-5.5,2.4-5.5,5.5v4c0,2.9,2.5,5.6,5.5,5.5c3-0.1,5.5-2.4,5.5-5.5v-4
			C2466.5,2026.1,2464,2023.4,2461,2023.5z"/>
		<path class="st3" d="M2342.5,2089c-7.1,0-7.1,11,0,11C2349.6,2100,2349.6,2089,2342.5,2089z"/>
		<path class="st3" d="M2214.4,2149.7c-2.2-2-5.2-2.4-7.8-0.9c-1.2,0.7-2.2,2-2.5,3.3c-0.2,0.9-0.2,2,0,2.9
			c-0.6,2.3,0.3,4.9,2.5,6.2c2.5,1.5,5.7,1.2,7.8-0.9c1.4-1.4,2-3.4,2.1-5.3C2216.4,2153.2,2215.7,2151.1,2214.4,2149.7z"/>
		<path class="st3" d="M2145,1939.5c-3,0.1-5.5,2.4-5.5,5.5v4c0,2.9,2.5,5.6,5.5,5.5c3-0.1,5.5-2.4,5.5-5.5v-4
			C2150.5,1942.1,2148,1939.4,2145,1939.5z"/>
		<path class="st3" d="M2205,1747.5c-3,0.1-5.5,2.4-5.5,5.5v4c0,2.9,2.5,5.6,5.5,5.5c3-0.1,5.5-2.4,5.5-5.5v-4
			C2210.5,1750.1,2208,1747.4,2205,1747.5z"/>
		<path class="st3" d="M2685,1807.5c-3,0.1-5.5,2.4-5.5,5.5v4c0,2.9,2.5,5.6,5.5,5.5c3-0.1,5.5-2.4,5.5-5.5v-4
			C2690.5,1810.1,2688,1807.4,2685,1807.5z"/>
		<path class="st3" d="M2745,2035.5c-7.1,0-7.1,11,0,11C2752.1,2046.5,2752.1,2035.5,2745,2035.5z"/>
		<path class="st3" d="M2061,2143.5h-4c-2.9,0-5.6,2.5-5.5,5.5c0.1,3,2.4,5.5,5.5,5.5h4c2.9,0,5.6-2.5,5.5-5.5
			C2066.4,2146,2064.1,2143.5,2061,2143.5z"/>
		<path class="st3" d="M2689,1551.5c-7.1,0-7.1,11,0,11C2696.1,1562.5,2696.1,1551.5,2689,1551.5z"/>
		<path class="st3" d="M2741,1359.5c-7.1,0-7.1,11,0,11C2748.1,1370.5,2748.1,1359.5,2741,1359.5z"/>
		<path class="st3" d="M2697,1147.5c-7.1,0-7.1,11,0,11C2704.1,1158.5,2704.1,1147.5,2697,1147.5z"/>
		<path class="st3" d="M2333,1359.5c-3,0.1-5.5,2.4-5.5,5.5v4c0,2.9,2.5,5.6,5.5,5.5c3-0.1,5.5-2.4,5.5-5.5v-4
			C2338.5,1362.1,2336,1359.4,2333,1359.5z"/>
		<path class="st3" d="M2441,1595.5c-7.1,0-7.1,11,0,11C2448.1,1606.5,2448.1,1595.5,2441,1595.5z"/>
		<path class="st3" d="M2097,1387.5c-7.1,0-7.1,11,0,11C2104.1,1398.5,2104.1,1387.5,2097,1387.5z"/>
		<path class="st3" d="M1761,1475.5c-3,0.1-5.5,2.4-5.5,5.5v8c0,2.9,2.5,5.6,5.5,5.5c3-0.1,5.5-2.4,5.5-5.5v-8
			C1766.5,1478.1,1764,1475.4,1761,1475.5z"/>
		<path class="st3" d="M1641,1807.5c-3,0.1-5.5,2.4-5.5,5.5v4c0,2.9,2.5,5.6,5.5,5.5c3-0.1,5.5-2.4,5.5-5.5v-4
			C1646.5,1810.1,1644,1807.4,1641,1807.5z"/>
		<path class="st3" d="M1301,1639.5c-7.1,0-7.1,11,0,11C1308.1,1650.5,1308.1,1639.5,1301,1639.5z"/>
		<path class="st3" d="M1473,883.5c-7.1,0-7.1,11,0,11C1480.1,894.5,1480.1,883.5,1473,883.5z"/>
		<path class="st3" d="M1721,683.5c-7.1,0-7.1,11,0,11C1728.1,694.5,1728.1,683.5,1721,683.5z"/>
		<path class="st3" d="M1685,479.5c-7.1,0-7.1,11,0,11C1692.1,490.5,1692.1,479.5,1685,479.5z"/>
		<path class="st3" d="M2505,879.5c-3,0.1-5.5,2.4-5.5,5.5v4c0,2.9,2.5,5.6,5.5,5.5c3-0.1,5.5-2.4,5.5-5.5v-4
			C2510.5,882.1,2508,879.4,2505,879.5z"/>
		<path class="st3" d="M2697,811.5c-7.1,0-7.1,11,0,11C2704.1,822.5,2704.1,811.5,2697,811.5z"/>
		<path class="st3" d="M2705,519.5c-7.1,0-7.1,11,0,11C2712.1,530.5,2712.1,519.5,2705,519.5z"/>
		<path class="st3" d="M2645,307.5c-7.1,0-7.1,11,0,11C2652.1,318.5,2652.1,307.5,2645,307.5z"/>
		<path class="st3" d="M2733,171.5c-7.1,0-7.1,11,0,11C2740.1,182.5,2740.1,171.5,2733,171.5z"/>
		<path class="st3" d="M2665,55.5c-7.1,0-7.1,11,0,11C2672.1,66.5,2672.1,55.5,2665,55.5z"/>
		<path class="st3" d="M2333,119.5c-7.1,0-7.1,11,0,11C2340.1,130.5,2340.1,119.5,2333,119.5z"/>
		<path class="st3" d="M2360.9,413.1c-1.3-1.3-2.7-2.7-4-4c-2-2-5.8-2.2-7.8,0c-2,2.2-2.2,5.6,0,7.8c1.3,1.3,2.7,2.7,4,4
			c2,2,5.8,2.2,7.8,0C2362.9,418.7,2363.1,415.3,2360.9,413.1z"/>
		<path class="st3" d="M2165,591.5c-7.1,0-7.1,11,0,11C2172.1,602.5,2172.1,591.5,2165,591.5z"/>
		<path class="st3" d="M2193,815.5h-8c-2.9,0-5.6,2.5-5.5,5.5c0.1,3,2.4,5.5,5.5,5.5h8c2.9,0,5.6-2.5,5.5-5.5
			C2198.4,818,2196.1,815.5,2193,815.5z"/>
		<path class="st3" d="M1988.9,1061.1c-1.3-1.3-2.7-2.7-4-4c-2-2-5.8-2.2-7.8,0c-2,2.2-2.2,5.6,0,7.8c1.3,1.3,2.7,2.7,4,4
			c2,2,5.8,2.2,7.8,0C1990.9,1066.7,1991.1,1063.3,1988.9,1061.1z"/>
		<path class="st3" d="M1817,1255.5h-8c-2.9,0-5.6,2.5-5.5,5.5c0.1,3,2.4,5.5,5.5,5.5h8c2.9,0,5.6-2.5,5.5-5.5
			C1822.4,1258,1820.1,1255.5,1817,1255.5z"/>
		<path class="st3" d="M1373,1071.5c-3,0.1-5.5,2.4-5.5,5.5v4c0,2.9,2.5,5.6,5.5,5.5c3-0.1,5.5-2.4,5.5-5.5v-4
			C1378.5,1074.1,1376,1071.4,1373,1071.5z"/>
		<path class="st3" d="M931.5,1166.6v2.4c0,7.1,11,7.1,11,0v-2.4C942.5,1159.5,931.5,1159.5,931.5,1166.6z"/>
		<path class="st3" d="M357,1867.5c-3,0.1-5.5,2.4-5.5,5.5v4c0,2.9,2.5,5.6,5.5,5.5c3-0.1,5.5-2.4,5.5-5.5v-4
			C362.5,1870.1,360,1867.4,357,1867.5z"/>
		<path class="st3" d="M597,1567.5h-4c-2.9,0-5.6,2.5-5.5,5.5c0.1,3,2.4,5.5,5.5,5.5h4c2.9,0,5.6-2.5,5.5-5.5
			C602.4,1570,600.1,1567.5,597,1567.5z"/>
		<path class="st3" d="M753,1419.5c-7.1,0-7.1,11,0,11C760.1,1430.5,760.1,1419.5,753,1419.5z"/>
		<path class="st3" d="M981,1583.5h-4c-2.9,0-5.6,2.5-5.5,5.5c0.1,3,2.4,5.5,5.5,5.5h4c2.9,0,5.6-2.5,5.5-5.5
			C986.4,1586,984.1,1583.5,981,1583.5z"/>
		<path class="st3" d="M641.7,1846.2c-1.7-2.6-4.8-3.4-7.5-2c-2.7,1.3-5.3,2.7-8,4c-2.6,1.3-3.5,5.1-2,7.5c1.7,2.6,4.8,3.4,7.5,2
			c2.7-1.3,5.3-2.7,8-4C642.4,1852.5,643.3,1848.6,641.7,1846.2z"/>
		<path class="st3" d="M265,1691.5c-7.1,0-7.1,11,0,11C272.1,1702.5,272.1,1691.5,265,1691.5z"/>
		<path class="st3" d="M133,1539.5h-4c-2.9,0-5.6,2.5-5.5,5.5c0.1,3,2.4,5.5,5.5,5.5h4c2.9,0,5.6-2.5,5.5-5.5
			C138.4,1542,136.1,1539.5,133,1539.5z"/>
		<path class="st3" d="M77,1123.5c-3,0.1-5.5,2.4-5.5,5.5v4c0,2.9,2.5,5.6,5.5,5.5c3-0.1,5.5-2.4,5.5-5.5v-4
			C82.5,1126.1,80,1123.4,77,1123.5z"/>
		<path class="st3" d="M277.9,1234.6c-1.7-2.6-4.8-3.4-7.5-2c-2.7,1.3-5.3,2.7-8,4c-2.6,1.3-3.5,5.1-2,7.5c1.7,2.6,4.8,3.4,7.5,2
			c2.7-1.3,5.3-2.7,8-4C278.5,1240.8,279.5,1237,277.9,1234.6z"/>
		<path class="st3" d="M117,711.5h-4c-2.9,0-5.6,2.5-5.5,5.5c0.1,3,2.4,5.5,5.5,5.5h4c2.9,0,5.6-2.5,5.5-5.5
			C122.4,714,120.1,711.5,117,711.5z"/>
		<path class="st3" d="M141,259.5c-7.1,0-7.1,11,0,11C148.1,270.5,148.1,259.5,141,259.5z"/>
		<path class="st3" d="M141.9,98.6c-1.7-2.6-4.8-3.4-7.5-2c-2.7,1.4-5.3,2.7-8,4.1c-2.6,1.3-3.5,5.1-2,7.5c1.7,2.6,4.8,3.4,7.5,2
			c2.7-1.4,5.3-2.7,8-4.1C142.5,104.8,143.5,101,141.9,98.6z"/>
		<path class="st3" d="M581,115.5c-7.1,0-7.1,11,0,11C588.1,126.5,588.1,115.5,581,115.5z"/>
		<path class="st3" d="M957,51.5c-7.1,0-7.1,11,0,11C964.1,62.5,964.1,51.5,957,51.5z"/>
		<path class="st3" d="M1205,195.5c-3,0.1-5.5,2.4-5.5,5.5v4c0,2.9,2.5,5.6,5.5,5.5c3-0.1,5.5-2.4,5.5-5.5v-4
			C1210.5,198.1,1208,195.4,1205,195.5z"/>
		<path class="st3" d="M1273,411.5c-3,0.1-5.5,2.4-5.5,5.5v4c0,2.9,2.5,5.6,5.5,5.5c3-0.1,5.5-2.4,5.5-5.5v-4
			C1278.5,414.1,1276,411.4,1273,411.5z"/>
		<path class="st3" d="M888.9,369.1c-1.3-1.3-2.7-2.7-4-4c-2-2-5.8-2.2-7.8,0c-2,2.2-2.2,5.6,0,7.8c1.3,1.3,2.7,2.7,4,4
			c2,2,5.8,2.2,7.8,0C890.9,374.7,891.1,371.3,888.9,369.1z"/>
		<path class="st3" d="M1361,71.5h-4c-2.9,0-5.6,2.5-5.5,5.5c0.1,3,2.4,5.5,5.5,5.5h4c2.9,0,5.6-2.5,5.5-5.5
			C1366.4,74,1364.1,71.5,1361,71.5z"/>
		<path class="st3" d="M1729,131.5c-3,0.1-5.5,2.4-5.5,5.5v4c0,2.9,2.5,5.6,5.5,5.5c3-0.1,5.5-2.4,5.5-5.5v-4
			C1734.5,134.1,1732,131.4,1729,131.5z"/>
		<path class="st3" d="M1989,55.5c-7.1,0-7.1,11,0,11C1996.1,66.5,1996.1,55.5,1989,55.5z"/>
		<path class="st3" d="M2113,163.5c-3,0.1-5.5,2.4-5.5,5.5v8c0,2.9,2.5,5.6,5.5,5.5c3-0.1,5.5-2.4,5.5-5.5v-8
			C2118.5,166.1,2116,163.4,2113,163.5z"/>
		<polygon class="st3" points="473.8,298.6 488.8,326 516.3,341 488.8,356 473.8,383.4 458.8,356 431.4,341 458.8,326 		"/>
		<polygon class="st3" points="2379.5,2516.1 2394.5,2543.5 2421.9,2558.5 2394.5,2573.5 2379.5,2600.9 2364.5,2573.5 
			2337.1,2558.5 2364.5,2543.5 		"/>
		<polygon class="st3" points="2427.5,955.6 2442.5,983.1 2469.9,998.1 2442.5,1013.1 2427.5,1040.5 2412.5,1013.1 2385.1,998.1 
			2412.5,983.1 		"/>
		<polygon class="st3" points="1617.9,1424 1632.9,1451.4 1660.3,1466.4 1632.9,1481.4 1617.9,1508.8 1602.9,1481.4 1575.4,1466.4 
			1602.9,1451.4 		"/>
		<polygon class="st3" points="851.7,2465.1 866.7,2492.5 894.1,2507.5 866.7,2522.5 851.7,2549.9 836.7,2522.5 809.3,2507.5 
			836.7,2492.5 		"/>
		<polygon class="st3" points="2011.9,256.7 2026.9,284.1 2054.4,299.1 2026.9,314.1 2011.9,341.5 1997,314.1 1969.5,299.1 
			1997,284.1 		"/>
		<polygon class="st3" points="1295.7,611.8 1319.6,655.6 1363.4,679.5 1319.6,703.4 1295.7,747.2 1271.8,703.4 1228,679.5 
			1271.8,655.6 		"/>
		<path class="st3" d="M1819.9,551.5c-3,0.1-5.5,2.4-5.5,5.5v8c0,2.9,2.5,5.6,5.5,5.5c3-0.1,5.5-2.4,5.5-5.5v-8
			C1825.4,554.1,1822.9,551.4,1819.9,551.5z"/>
		<path class="st3" d="M1721,771.5c-7.1,0-7.1,11,0,11C1728.1,782.5,1728.1,771.5,1721,771.5z"/>
		<polygon class="st3" points="302,1983.8 326,2027.6 369.7,2051.5 326,2075.4 302,2119.2 278.1,2075.4 234.4,2051.5 278.1,2027.6 
					"/>
		<polygon class="st3" points="2847,1615.3 2871,1659.1 2914.7,1683 2871,1706.9 2847,1750.7 2823.1,1706.9 2779.3,1683 
			2823.1,1659.1 		"/>
		<polygon class="st3" points="1931.7,2732.3 1955.6,2776.1 1999.4,2800 1955.6,2823.9 1931.7,2867.7 1907.8,2823.9 1864,2800 
			1907.8,2776.1 		"/>
		<polygon class="st3" points="369.7,1003.8 393.7,1047.6 437.4,1071.5 393.7,1095.4 369.7,1139.2 345.8,1095.4 302,1071.5 
			345.8,1047.6 		"/>
		<circle class="st6" cx="666.5" cy="679.5" r="250.5"/>
		<circle class="st7" cx="666.5" cy="679.5" r="205.5"/>
		<circle class="st6" cx="707.4" cy="561" r="40.3"/>
		<circle class="st6" cx="785.7" cy="637.6" r="22.2"/>
		<circle class="st6" cx="681" cy="683.5" r="32.8"/>
		<circle class="st6" cx="687.7" cy="833" r="17.1"/>
		<circle class="st6" cx="2247.3" cy="694.5" r="336"/>
		<circle class="st6" cx="986.5" cy="1984.8" r="250.5"/>
		<g class="st4">
			<path class="st8" d="M1052,1820.4c48.7,31.5,81,86.3,81,148.7c0,97.7-79.2,176.9-176.9,176.9c-23.1,0-45.2-4.4-65.5-12.5
				c27.6,17.9,60.6,28.3,95.9,28.3c97.7,0,176.9-79.2,176.9-176.9C1163.5,1910.2,1117.3,1846.4,1052,1820.4z"/>
			<path class="st9" d="M1133,1969.1c0-62.4-32.3-117.2-81-148.7c-20.3-8.1-42.3-12.5-65.5-12.5c-97.7,0-176.9,79.2-176.9,176.9
				c0,62.4,32.3,117.2,81,148.7c20.3,8.1,42.3,12.5,65.5,12.5C1053.8,2146,1133,2066.8,1133,1969.1z"/>
		</g>
		<circle class="st6" cx="2800" cy="2230.5" r="322.5"/>
		<circle class="st10" cx="2800" cy="2230.5" r="226.9"/>
		<path class="st11" d="M2490.8,703.6c-0.1,1.5-0.1,3.1-0.2,4.6C2490.7,706.7,2490.8,705.1,2490.8,703.6z"/>
		<path class="st11" d="M2420.3,522.9c1.5,1.5,2.9,3,4.3,4.5C2423.2,525.9,2421.8,524.4,2420.3,522.9z"/>
		<path class="st11" d="M2488.3,731.1c-0.7,4.4-1.5,8.8-2.4,13.2C2486.8,739.9,2487.6,735.5,2488.3,731.1z"/>
		<path class="st11" d="M2489.2,724.4c-0.2,1.5-0.4,3.1-0.6,4.6C2488.8,727.5,2489,725.9,2489.2,724.4z"/>
		<path class="st11" d="M2490.4,710.8c-0.1,1.4-0.2,2.8-0.3,4.3C2490.2,713.6,2490.4,712.2,2490.4,710.8z"/>
		<path class="st11" d="M2429.9,533.1c1.1,1.3,2.2,2.5,3.3,3.8C2432.1,535.6,2431,534.4,2429.9,533.1z"/>
		<path class="st11" d="M2489.9,717.7c-0.1,1.4-0.3,2.8-0.4,4.3C2489.6,720.5,2489.8,719.1,2489.9,717.7z"/>
		<path class="st11" d="M2425.4,528.2c1.2,1.3,2.4,2.6,3.6,3.9C2427.8,530.8,2426.6,529.4,2425.4,528.2z"/>
		<path class="st11" d="M2479.5,620.3c0.4,1.3,0.8,2.6,1.2,4C2480.3,622.9,2479.9,621.6,2479.5,620.3z"/>
		<path class="st11" d="M2477.4,614c0.5,1.3,0.9,2.6,1.4,4C2478.3,616.7,2477.8,615.4,2477.4,614z"/>
		<path class="st11" d="M2480.4,765.8c-0.5,1.6-1,3.2-1.5,4.7C2479.4,769,2479.9,767.4,2480.4,765.8z"/>
		<path class="st11" d="M2485.5,746.1c-0.3,1.5-0.7,3.1-1,4.6C2484.8,749.2,2485.2,747.7,2485.5,746.1z"/>
		<path class="st11" d="M2482.2,759.5c-0.4,1.4-0.8,2.8-1.2,4.3C2481.4,762.3,2481.8,760.9,2482.2,759.5z"/>
		<path class="st11" d="M2457.4,571.1c0.8,1.3,1.5,2.6,2.3,4C2459,573.7,2458.2,572.4,2457.4,571.1z"/>
		<path class="st11" d="M2405.8,509.4c5,4.3,9.8,8.7,14.4,13.4C2415.6,518.2,2410.8,513.7,2405.8,509.4z"/>
		<path class="st11" d="M2483.9,753c-0.3,1.4-0.7,2.8-1.1,4.2C2483.2,755.8,2483.6,754.4,2483.9,753z"/>
		<path class="st11" d="M2484.7,639.1c0.5,2.1,1,4.3,1.4,6.4C2485.6,643.4,2485.2,641.2,2484.7,639.1z"/>
		<path class="st11" d="M2488.7,661c0.2,1.3,0.4,2.7,0.5,4C2489.1,663.7,2488.9,662.3,2488.7,661z"/>
		<path class="st11" d="M2481.4,626.5c0.4,1.4,0.8,2.7,1.1,4.1C2482.2,629.3,2481.8,627.9,2481.4,626.5z"/>
		<path class="st11" d="M2442.1,548.1c2.6,3.5,5.2,7.1,7.6,10.7C2447.3,555.1,2444.7,551.6,2442.1,548.1z"/>
		<path class="st11" d="M2486.2,646.4c0.4,1.8,0.7,3.7,1.1,5.6C2487,650.1,2486.6,648.2,2486.2,646.4z"/>
		<path class="st11" d="M2487.7,654.1c0.2,1.4,0.5,2.9,0.7,4.3C2488.1,657,2487.9,655.6,2487.7,654.1z"/>
		<path class="st11" d="M2449.9,559.1c1.1,1.6,2.2,3.3,3.2,5C2452.1,562.4,2451,560.7,2449.9,559.1z"/>
		<path class="st11" d="M2400.9,505.3c1.5,1.2,2.9,2.4,4.3,3.6C2403.8,507.7,2402.3,506.5,2400.9,505.3z"/>
		<path class="st11" d="M2483.1,632.8c0.4,1.6,0.8,3.1,1.2,4.7C2483.9,636,2483.5,634.4,2483.1,632.8z"/>
		<path class="st11" d="M2434.1,538.1c1.1,1.3,2.2,2.6,3.2,4C2436.3,540.7,2435.2,539.4,2434.1,538.1z"/>
		<path class="st11" d="M2490.9,687.7c0.1,2.2,0.1,4.5,0.1,6.8C2491,692.2,2491,690,2490.9,687.7z"/>
		<path class="st11" d="M2491,694.5c0,2.3,0,4.6-0.1,6.9C2491,699.1,2491,696.8,2491,694.5z"/>
		<path class="st11" d="M2490.6,681c0.1,1.5,0.1,3,0.2,4.5C2490.8,684,2490.7,682.5,2490.6,681z"/>
		<path class="st11" d="M2438.2,543c1.2,1.5,2.3,3,3.5,4.5C2440.5,546,2439.4,544.5,2438.2,543z"/>
		<path class="st11" d="M2490.2,674.3c0.1,1.4,0.2,2.7,0.3,4.1C2490.4,677.1,2490.3,675.7,2490.2,674.3z"/>
		<path class="st11" d="M2454,565.3c0.9,1.4,1.7,2.8,2.6,4.2C2455.7,568.1,2454.8,566.7,2454,565.3z"/>
		<path class="st11" d="M2489.5,667.7c0.1,1.3,0.3,2.7,0.4,4C2489.8,670.3,2489.7,669,2489.5,667.7z"/>
		<path class="st11" d="M2463.7,582.4c0.7,1.4,1.5,2.9,2.2,4.3C2465.2,585.3,2464.5,583.8,2463.7,582.4z"/>
		<path class="st11" d="M2430.7,854.9c-1.4,1.6-2.8,3.2-4.2,4.7C2427.9,858.1,2429.4,856.5,2430.7,854.9z"/>
		<path class="st11" d="M2447.3,833.8c-1,1.5-2.1,3-3.2,4.4C2445.2,836.8,2446.2,835.3,2447.3,833.8z"/>
		<path class="st11" d="M2292,934.1c-0.9,0.2-1.9,0.3-2.8,0.5C2290.1,934.4,2291,934.2,2292,934.1z"/>
		<path class="st11" d="M2469.3,593.9c0.9,2,1.8,4,2.6,6C2471.1,597.9,2470.2,595.9,2469.3,593.9z"/>
		<path class="st11" d="M2443.5,839.1c-4,5.4-8.2,10.6-12.6,15.7C2435.3,849.7,2439.5,844.5,2443.5,839.1z"/>
		<path class="st11" d="M2286.4,935c-0.8,0.1-1.7,0.3-2.5,0.4C2284.7,935.3,2285.6,935.2,2286.4,935z"/>
		<path class="st11" d="M2425.9,860.3c-1.3,1.4-2.6,2.8-4,4.2C2423.3,863.1,2424.6,861.7,2425.9,860.3z"/>
		<path class="st11" d="M2305.7,931.1c-3.8,0.9-7.6,1.8-11.5,2.5C2298,932.9,2301.9,932,2305.7,931.1z"/>
		<path class="st11" d="M2421.2,865.1c-1.4,1.4-2.8,2.8-4.2,4.2C2418.4,868,2419.9,866.6,2421.2,865.1z"/>
		<path class="st11" d="M2466.6,588.1c0.9,1.8,1.7,3.6,2.5,5.4C2468.3,591.7,2467.5,589.9,2466.6,588.1z"/>
		<path class="st11" d="M2306,931c4.3-1.1,8.6-2.2,12.8-3.5h0C2314.6,928.8,2310.3,930,2306,931z"/>
		<path class="st11" d="M2416.6,869.8c-6.4,6.2-13.2,12.1-20.3,17.6C2403.4,881.9,2410.1,876,2416.6,869.8z"/>
		<path class="st11" d="M2329.3,465c-9.1-3.2-18.4-6-28-8.1C2310.9,459,2320.2,461.8,2329.3,465L2329.3,465z"/>
		<path class="st11" d="M2451,828.3c-1,1.5-1.9,2.9-2.9,4.4C2449.1,831.2,2450,829.7,2451,828.3z"/>
		<path class="st11" d="M2467.8,798.4c-0.7,1.5-1.4,2.9-2.1,4.4C2466.4,801.3,2467.1,799.8,2467.8,798.4z"/>
		<path class="st11" d="M2460.7,576.7c0.7,1.3,1.4,2.7,2.2,4C2462.1,579.4,2461.4,578.1,2460.7,576.7z"/>
		<path class="st11" d="M2464.9,804.3c-0.8,1.7-1.7,3.3-2.6,5C2463.2,807.6,2464.1,805.9,2464.9,804.3z"/>
		<path class="st11" d="M2470.5,792.3c-0.6,1.4-1.3,2.9-1.9,4.3C2469.3,795.2,2469.9,793.8,2470.5,792.3z"/>
		<path class="st11" d="M2473.3,785.9c-0.6,1.6-1.3,3.1-2,4.7C2472,789,2472.6,787.5,2473.3,785.9z"/>
		<path class="st11" d="M2475.1,607.7c0.5,1.4,1.1,2.8,1.6,4.2C2476.1,610.5,2475.6,609.1,2475.1,607.7z"/>
		<path class="st11" d="M2289.8,454.5c1.8,0.3,3.6,0.7,5.4,1C2293.4,455.2,2291.6,454.9,2289.8,454.5z"/>
		<path class="st11" d="M2295.6,455.6c1.9,0.4,3.8,0.8,5.7,1.2C2299.4,456.4,2297.5,456,2295.6,455.6z"/>
		<path class="st11" d="M2461.9,810c-2.1,3.9-4.3,7.8-6.7,11.6C2457.6,817.8,2459.8,813.9,2461.9,810z"/>
		<path class="st11" d="M2478.4,772.1c-1.4,4.2-2.9,8.4-4.6,12.5C2475.5,780.4,2477,776.3,2478.4,772.1z"/>
		<path class="st11" d="M2283.9,453.6c1.8,0.3,3.6,0.6,5.4,0.9C2287.5,454.1,2285.7,453.8,2283.9,453.6z"/>
		<path class="st11" d="M2472.3,600.7c0.7,1.7,1.4,3.5,2.1,5.2C2473.7,604.2,2473,602.4,2472.3,600.7z"/>
		<path class="st11" d="M2454.8,822.3c-1,1.6-2,3.2-3,4.8C2452.8,825.5,2453.8,823.9,2454.8,822.3z"/>
		<path class="st12" d="M2459.7,575c0.3,0.6,0.6,1.1,1,1.7C2460.4,576.2,2460,575.6,2459.7,575z"/>
		<path class="st12" d="M2462.8,580.7c0.3,0.6,0.6,1.1,0.9,1.7C2463.4,581.9,2463.1,581.3,2462.8,580.7z"/>
		<path class="st12" d="M2456.5,569.5c0.3,0.5,0.6,1.1,0.9,1.6C2457.1,570.5,2456.8,570,2456.5,569.5z"/>
		<path class="st12" d="M2453.2,564.1c0.3,0.4,0.5,0.8,0.8,1.2C2453.7,564.9,2453.4,564.5,2453.2,564.1z"/>
		<path class="st12" d="M2306,931c-0.1,0-0.2,0.1-0.4,0.1C2305.8,931.1,2305.9,931.1,2306,931z"/>
		<path class="st12" d="M2289.3,454.5c0.2,0,0.3,0.1,0.5,0.1C2289.7,454.5,2289.5,454.5,2289.3,454.5z"/>
		<path class="st12" d="M2295.2,455.6c0.1,0,0.3,0.1,0.4,0.1C2295.5,455.6,2295.4,455.6,2295.2,455.6z"/>
		<polygon class="st12" points="2283.9,453.6 2283.9,453.6 2283.9,453.6 		"/>
		<path class="st12" d="M2301.3,456.8C2301.3,456.9,2301.3,456.9,2301.3,456.8C2301.3,456.9,2301.3,456.9,2301.3,456.8z"/>
		<path class="st12" d="M2465.9,586.7c0.2,0.5,0.5,1,0.7,1.4C2466.4,587.7,2466.1,587.2,2465.9,586.7z"/>
		<polygon class="st12" points="2283.9,935.4 2283.9,935.4 2283.9,935.4 		"/>
		<path class="st12" d="M2289.2,934.6c-0.9,0.2-1.8,0.3-2.8,0.5C2287.3,934.9,2288.2,934.7,2289.2,934.6z"/>
		<path class="st12" d="M2437.4,542c0.3,0.3,0.5,0.7,0.8,1C2437.9,542.7,2437.6,542.4,2437.4,542z"/>
		<path class="st12" d="M2433.2,536.9c0.3,0.4,0.6,0.8,1,1.1C2433.8,537.7,2433.5,537.3,2433.2,536.9z"/>
		<path class="st12" d="M2449.7,558.8c0.1,0.1,0.1,0.2,0.2,0.3C2449.9,559,2449.8,558.9,2449.7,558.8z"/>
		<path class="st12" d="M2405.2,508.9c0.2,0.2,0.4,0.3,0.6,0.5C2405.6,509.2,2405.4,509.1,2405.2,508.9z"/>
		<path class="st12" d="M2441.7,547.5c0.1,0.2,0.3,0.4,0.4,0.6C2442,547.9,2441.8,547.7,2441.7,547.5z"/>
		<path class="st12" d="M2420.2,522.8C2420.3,522.8,2420.3,522.9,2420.2,522.8C2420.3,522.9,2420.3,522.8,2420.2,522.8z"/>
		<path class="st12" d="M2424.6,527.4c0.2,0.3,0.5,0.5,0.7,0.8C2425.1,527.9,2424.9,527.6,2424.6,527.4z"/>
		<path class="st12" d="M2428.9,532.1c0.3,0.4,0.6,0.7,0.9,1.1C2429.6,532.8,2429.3,532.4,2428.9,532.1z"/>
		<path class="st12" d="M2294.2,933.6c-0.7,0.1-1.4,0.3-2.2,0.4C2292.7,933.9,2293.4,933.8,2294.2,933.6z"/>
		<path class="st12" d="M2468.6,796.6c-0.3,0.6-0.5,1.2-0.8,1.8C2468.1,797.8,2468.3,797.2,2468.6,796.6z"/>
		<path class="st12" d="M2473.8,784.5c-0.2,0.5-0.4,0.9-0.6,1.4C2473.4,785.4,2473.6,785,2473.8,784.5z"/>
		<path class="st12" d="M2471.3,790.6c-0.3,0.6-0.5,1.2-0.8,1.7C2470.8,791.7,2471.1,791.2,2471.3,790.6z"/>
		<path class="st12" d="M2465.7,802.8c-0.2,0.5-0.5,1-0.8,1.5C2465.2,803.8,2465.4,803.3,2465.7,802.8z"/>
		<path class="st12" d="M2478.9,770.6c-0.2,0.5-0.3,1-0.5,1.5C2478.6,771.6,2478.7,771.1,2478.9,770.6z"/>
		<path class="st12" d="M2482.8,757.2c-0.2,0.8-0.4,1.5-0.6,2.3C2482.4,758.7,2482.6,758,2482.8,757.2z"/>
		<path class="st12" d="M2484.5,750.7c-0.2,0.8-0.4,1.5-0.6,2.3C2484.1,752.2,2484.3,751.5,2484.5,750.7z"/>
		<path class="st12" d="M2481,763.7c-0.2,0.7-0.4,1.4-0.6,2.1C2480.6,765.1,2480.8,764.4,2481,763.7z"/>
		<path class="st12" d="M2462.3,809.3c-0.1,0.3-0.3,0.5-0.4,0.8C2462.1,809.8,2462.2,809.5,2462.3,809.3z"/>
		<path class="st12" d="M2448.1,832.6c-0.3,0.4-0.5,0.8-0.8,1.2C2447.5,833.4,2447.8,833,2448.1,832.6z"/>
		<path class="st12" d="M2417,869.3c-0.1,0.1-0.3,0.3-0.4,0.4C2416.7,869.6,2416.9,869.5,2417,869.3z"/>
		<path class="st12" d="M2469.2,593.6c0.1,0.1,0.1,0.2,0.2,0.4C2469.3,593.8,2469.2,593.7,2469.2,593.6z"/>
		<path class="st12" d="M2426.5,859.6c-0.2,0.2-0.4,0.4-0.6,0.6C2426.1,860,2426.3,859.8,2426.5,859.6z"/>
		<path class="st12" d="M2444.1,838.2c-0.2,0.3-0.4,0.6-0.6,0.9C2443.7,838.8,2443.9,838.5,2444.1,838.2z"/>
		<path class="st12" d="M2451.8,827.1c-0.3,0.4-0.5,0.8-0.8,1.2C2451.3,827.9,2451.5,827.5,2451.8,827.1z"/>
		<path class="st12" d="M2430.9,854.8c0,0-0.1,0.1-0.1,0.1C2430.8,854.9,2430.8,854.8,2430.9,854.8z"/>
		<path class="st12" d="M2485.9,744.2c-0.1,0.6-0.3,1.3-0.4,1.9C2485.6,745.5,2485.8,744.9,2485.9,744.2z"/>
		<path class="st12" d="M2455.3,821.6c-0.1,0.2-0.3,0.5-0.4,0.7C2455,822.1,2455.1,821.8,2455.3,821.6z"/>
		<path class="st12" d="M2421.9,864.4c-0.2,0.2-0.4,0.5-0.7,0.7C2421.5,864.9,2421.7,864.7,2421.9,864.4z"/>
		<path class="st12" d="M2482.5,630.6c0.2,0.7,0.4,1.4,0.6,2.2C2482.9,632.1,2482.7,631.4,2482.5,630.6z"/>
		<path class="st12" d="M2484.3,637.5c0.1,0.5,0.3,1.1,0.4,1.6C2484.6,638.6,2484.4,638.1,2484.3,637.5z"/>
		<path class="st12" d="M2486.1,645.5c0.1,0.3,0.1,0.6,0.2,0.9C2486.2,646.1,2486.1,645.8,2486.1,645.5z"/>
		<path class="st12" d="M2480.7,624.2c0.2,0.8,0.5,1.5,0.7,2.3C2481.2,625.8,2480.9,625,2480.7,624.2z"/>
		<path class="st12" d="M2476.6,611.9c0.3,0.7,0.5,1.4,0.8,2.1C2477.1,613.3,2476.9,612.6,2476.6,611.9z"/>
		<path class="st12" d="M2472,600c0.1,0.2,0.2,0.5,0.3,0.7C2472.2,600.5,2472.1,600.2,2472,600z"/>
		<path class="st12" d="M2478.7,618c0.2,0.8,0.5,1.5,0.7,2.3C2479.2,619.5,2479,618.8,2478.7,618z"/>
		<path class="st12" d="M2474.4,605.9c0.2,0.6,0.5,1.2,0.7,1.8C2474.8,607.1,2474.6,606.5,2474.4,605.9z"/>
		<path class="st12" d="M2487.3,652c0.1,0.7,0.2,1.5,0.4,2.2C2487.5,653.4,2487.4,652.7,2487.3,652z"/>
		<path class="st12" d="M2490.9,701.4c0,0.7-0.1,1.5-0.1,2.2C2490.8,702.8,2490.9,702.1,2490.9,701.4z"/>
		<path class="st12" d="M2488.6,729c-0.1,0.7-0.2,1.4-0.3,2C2488.4,730.4,2488.5,729.7,2488.6,729z"/>
		<path class="st12" d="M2490.1,715c-0.1,0.9-0.2,1.7-0.2,2.6C2490,716.8,2490.1,715.9,2490.1,715z"/>
		<path class="st12" d="M2490.6,708.2c0,0.9-0.1,1.7-0.2,2.6C2490.5,709.9,2490.6,709.1,2490.6,708.2z"/>
		<path class="st12" d="M2488.3,658.4c0.1,0.8,0.2,1.7,0.4,2.5C2488.6,660.1,2488.5,659.3,2488.3,658.4z"/>
		<path class="st12" d="M2489.5,721.9c-0.1,0.8-0.2,1.7-0.3,2.5C2489.3,723.6,2489.4,722.7,2489.5,721.9z"/>
		<path class="st12" d="M2489.9,671.7c0.1,0.9,0.2,1.8,0.2,2.7C2490.1,673.4,2490,672.6,2489.9,671.7z"/>
		<path class="st12" d="M2489.2,665c0.1,0.9,0.2,1.8,0.3,2.7C2489.4,666.8,2489.3,665.9,2489.2,665z"/>
		<path class="st12" d="M2490.5,678.5c0.1,0.9,0.1,1.7,0.2,2.6C2490.6,680.2,2490.5,679.3,2490.5,678.5z"/>
		<path class="st12" d="M2490.8,685.5c0,0.7,0.1,1.5,0.1,2.2C2490.9,687,2490.8,686.3,2490.8,685.5z"/>
		<g class="st4">
			
				<ellipse transform="matrix(0.9504 -0.3111 0.3111 0.9504 -104.5405 733.5567)" class="st13" cx="2247.3" cy="694.5" rx="243.7" ry="243.7"/>
			<path class="st14" d="M2462.7,808.4c0.1-0.2,0.2-0.4,0.3-0.5c0.9-1.8,1.8-3.5,2.7-5.3c0.1-0.3,0.3-0.6,0.4-0.9
				c0.8-1.7,1.7-3.5,2.5-5.2c0.1-0.3,0.2-0.5,0.4-0.8c0.9-1.9,1.7-3.9,2.6-5.8c0-0.1,0.1-0.1,0.1-0.2c2.6-6.2,5-12.4,7.1-18.8
				c0.1-0.3,0.2-0.7,0.3-1c0.6-1.7,1.1-3.4,1.6-5.2c0.1-0.5,0.3-0.9,0.4-1.4c0.5-1.7,1-3.4,1.4-5.1c0.1-0.4,0.2-0.9,0.4-1.3
				c0.5-1.8,1-3.7,1.4-5.5c0.1-0.3,0.1-0.5,0.2-0.8c1-4.3,1.9-8.7,2.7-13.1c0.1-0.3,0.1-0.6,0.1-0.8c0.3-1.8,0.6-3.7,0.9-5.6
				c0.1-0.6,0.2-1.1,0.2-1.7c0.2-1.6,0.5-3.2,0.7-4.8c0.1-0.6,0.2-1.3,0.2-1.9c0.2-1.6,0.3-3.1,0.5-4.7c0.1-0.6,0.1-1.3,0.2-1.9
				c0.2-1.7,0.3-3.4,0.4-5.1c0-0.5,0.1-1,0.1-1.5c0.3-4.4,0.4-8.8,0.5-13.3c0-0.5,0-1.1,0-1.6c0-1.7,0-3.3,0-5c0-0.7,0-1.5-0.1-2.2
				c0-1.5-0.1-2.9-0.2-4.4c0-0.8-0.1-1.6-0.1-2.4c-0.1-1.5-0.2-2.9-0.3-4.4c-0.1-0.8-0.1-1.5-0.2-2.3c-0.1-1.6-0.3-3.1-0.4-4.7
				c-0.1-0.7-0.1-1.3-0.2-2c-0.5-4.4-1.1-8.8-1.9-13.2c-0.1-0.7-0.2-1.3-0.4-2c-0.3-1.5-0.5-3.1-0.9-4.6c-0.2-0.8-0.3-1.6-0.5-2.5
				c-0.3-1.4-0.6-2.8-0.9-4.2c-0.2-0.9-0.4-1.7-0.6-2.6c-0.3-1.4-0.7-2.8-1-4.2c-0.2-0.8-0.4-1.7-0.6-2.5c-0.4-1.5-0.8-3-1.2-4.5
				c-0.2-0.7-0.4-1.4-0.6-2.1c-0.6-2.2-1.3-4.4-2-6.6c-0.7-2.1-1.4-4.3-2.2-6.4c-0.2-0.7-0.5-1.4-0.8-2.1c-0.5-1.4-1-2.8-1.6-4.2
				c-0.3-0.8-0.6-1.6-1-2.4c-0.5-1.3-1-2.6-1.6-3.8c-0.3-0.8-0.7-1.6-1.1-2.5c-0.5-1.2-1.1-2.5-1.6-3.7c-0.4-0.8-0.7-1.6-1.1-2.4
				c-0.6-1.2-1.2-2.5-1.8-3.7c-0.4-0.8-0.7-1.5-1.1-2.3c-0.7-1.3-1.3-2.6-2-3.9c-0.3-0.7-0.7-1.3-1-2c-0.9-1.7-1.8-3.3-2.7-5
				c-0.1-0.3-0.3-0.5-0.4-0.8c-1.1-1.9-2.2-3.8-3.3-5.7c-0.3-0.5-0.6-0.9-0.9-1.4c-0.9-1.4-1.7-2.8-2.6-4.1
				c-0.4-0.6-0.8-1.2-1.2-1.9c-0.8-1.2-1.6-2.4-2.4-3.6c-0.4-0.7-0.9-1.3-1.4-2c-0.8-1.1-1.6-2.3-2.4-3.4c-0.5-0.6-0.9-1.3-1.4-1.9
				c-0.8-1.1-1.7-2.2-2.5-3.4c-0.5-0.6-0.9-1.2-1.4-1.8c-0.9-1.2-1.9-2.4-2.8-3.5c-0.4-0.5-0.8-1-1.2-1.5c-1.2-1.4-2.4-2.9-3.6-4.3
				c-0.2-0.2-0.3-0.4-0.5-0.6c-1.4-1.7-2.9-3.3-4.4-4.9c-0.1-0.1-0.2-0.2-0.3-0.3c-1.4-1.5-2.7-2.9-4.1-4.3
				c-0.4-0.4-0.8-0.8-1.1-1.1c-1.1-1.1-2.2-2.3-3.4-3.4c-0.5-0.4-0.9-0.9-1.4-1.3c-1.1-1.1-2.2-2.1-3.3-3.1c-0.5-0.4-1-0.9-1.4-1.3
				c-1.1-1-2.3-2-3.4-3.1c-0.5-0.4-0.9-0.8-1.4-1.2c-1.2-1.1-2.5-2.1-3.7-3.2c-0.4-0.3-0.8-0.6-1.1-0.9c-1.5-1.3-3.1-2.5-4.6-3.7
				c-0.1-0.1-0.2-0.2-0.3-0.2c-3.5-2.7-7-5.3-10.6-7.8c-0.2-0.1-0.4-0.3-0.6-0.4c-1.6-1.1-3.1-2.1-4.7-3.2c-0.4-0.2-0.7-0.5-1.1-0.7
				c-1.4-0.9-2.9-1.8-4.3-2.7c-0.4-0.3-0.8-0.5-1.3-0.8c-1.4-0.9-2.9-1.7-4.3-2.6c-0.4-0.2-0.8-0.5-1.2-0.7
				c-1.5-0.9-3.1-1.8-4.6-2.6c-0.3-0.2-0.6-0.3-0.9-0.5c-1.8-1-3.7-2-5.5-2.9c0,0-0.1,0-0.1-0.1c-5.8-3-11.8-5.7-17.9-8.3
				c-0.2-0.1-0.5-0.2-0.7-0.3c-1.7-0.7-3.5-1.4-5.3-2.1c-25.5-9.8-52.7-15.3-80.5-16l0,0c-9.6-0.3-19.4,0.1-29.1,1c0,0,0,0,0,0
				c-1.9,0.2-3.8,0.4-5.8,0.6c-0.1,0-0.3,0-0.4,0.1c-1.8,0.2-3.6,0.5-5.5,0.7c-0.2,0-0.3,0.1-0.5,0.1c-1.8,0.3-3.6,0.5-5.4,0.8
				c0,0,0,0,0,0l3.6,10.9l-52.7,17.2c-10.5,3.4-16.2,14.8-12.8,25.2v0c3.4,10.5,14.8,16.2,25.2,12.8l52.7-17.2l7.9,24.2l-109.7,35.9
				c-10.5,3.4-16.2,14.8-12.8,25.2v0c3.4,10.5,14.8,16.2,25.2,12.8l109.7-35.9l9.8,29.9l-141.5,46.3c-10.5,3.4-16.2,14.8-12.8,25.2
				v0c3.4,10.5,14.8,16.2,25.2,12.8l141.5-46.3l34.1,104.1l-109.7,35.9c-10.5,3.4-16.2,14.8-12.8,25.2v0
				c3.4,10.5,14.8,16.2,25.2,12.8l109.7-35.9l8.7,26.6l-99.1,32.4c-10.5,3.4-16.2,14.8-12.8,25.2c3.4,10.5,14.8,16.2,25.2,12.8
				l99.1-32.4l8.7,26.6l-18.2,6c-10.5,3.4-16.2,14.8-12.8,25.2c3.4,10.5,14.8,16.2,25.2,12.8l18.2-6l2.5,7.5c0,0,0,0,0,0
				c0.7-0.4,1.5-0.8,2.2-1.1c0.8-0.4,1.7-0.9,2.5-1.3c0.8-0.4,1.7-0.9,2.5-1.4c0.6-0.4,1.3-0.7,1.9-1.1c3.4-1.9,6.8-3.9,10.2-6
				c0.1-0.1,0.2-0.1,0.3-0.2c3.7-2.3,7.4-4.8,11-7.3l0,0c24.3-17.1,44.8-38.3,61.1-62.2C2453.9,824,2458.5,816.3,2462.7,808.4z"/>
			<path class="st15" d="M2512.8,637.3l-513.3,168c-14.8,4.8-30.8-3.3-35.6-18v0c-4.8-14.8,3.3-30.8,18-35.6l513.3-168
				c14.8-4.8,30.8,3.3,35.6,18v0C2535.6,616.5,2527.5,632.5,2512.8,637.3z"/>
		</g>
		<g class="st4">
			<path class="st16" d="M1743-46.4c-12.5-12.5-236.6,191.3-249,203.8c-12.5,12.5-12.5,32.7,0,45.2c12.5,12.5,32.7,12.5,45.2,0
				C1551.6,190.1,1755.5-33.9,1743-46.4z"/>
			
				<ellipse transform="matrix(0.7071 -0.7071 0.7071 0.7071 317.5964 1125.365)" class="st5" cx="1517.2" cy="179.3" rx="22.8" ry="22.8"/>
		</g>
		<g class="st4">
			<path class="st16" d="M1946.9,1549.5c-11.9,13,202,227.5,215.1,239.4c13,11.9,33.3,11,45.2-2.1c11.9-13,11-33.3-2.1-45.2
				C2192.1,1729.7,1958.8,1536.4,1946.9,1549.5z"/>
			
				<ellipse transform="matrix(0.6737 -0.739 0.739 0.6737 -591.7661 2188.7476)" class="st5" cx="2182.8" cy="1764.5" rx="22.8" ry="22.8"/>
		</g>
		<g class="st4">
			<path class="st16" d="M1041.9,2738.8c-12.5-12.5-236.6,191.3-249,203.8c-12.5,12.5-12.5,32.7,0,45.2c12.5,12.5,32.7,12.5,45.2,0
				C850.6,2975.3,1054.4,2751.3,1041.9,2738.8z"/>
		</g>
		<circle class="st6" cx="2727.7" cy="2107.5" r="42.5"/>
		<circle class="st6" cx="2627.3" cy="2188.3" r="18.2"/>
		<circle class="st6" cx="2721" cy="2219.5" r="41.7"/>
		<g class="st4">
			<path class="st15" d="M1107.5,1300.2L1107.5,1300.2c-7.9-7.3-20.3-6.8-27.6,1.1l-25.9,28.2c7.3-7.9,6.8-20.3-1.1-27.6
				c-7.9-7.3-20.3-6.8-27.6,1.1l-91.9,99.7c-7.3,7.9-6.8,20.3,1.1,27.6c7.9,7.3,20.3,6.8,27.6-1.1l25.9-28.2
				c-7.3,7.9-6.8,20.3,1.1,27.6l0,0c7.9,7.3,20.3,6.8,27.6-1.1l91.9-99.7C1115.9,1319.9,1115.4,1307.5,1107.5,1300.2z"/>
			<path class="st14" d="M1100.4,1452.7l-6.4-5.9c-13.1-12-13.9-32.6-1.9-45.7l114.8-124.6c12-13.1,32.6-13.9,45.7-1.9l6.4,5.9
				c13.1,12,13.9,32.6,1.9,45.7L1146,1450.9C1134,1463.9,1113.4,1464.8,1100.4,1452.7z"/>
			<path class="st14" d="M936.4,1301.7l-6.4-5.9c-13.1-12-13.9-32.6-1.9-45.7l114.8-124.6c12-13.1,32.6-13.9,45.7-1.9l6.4,5.9
				c13.1,12,13.9,32.6,1.9,45.7l-114.8,124.6C970.1,1312.9,949.5,1313.8,936.4,1301.7z"/>
			<path class="st5" d="M1117.1,1099.2c-54.7,59.3-92,123-106.3,174.9c-3,11,0.3,22.7,8.6,30.4l65,59.9c8.4,7.7,20.3,10,31,6.1
				c50.5-18.4,110.9-60.8,165.6-120.2c26.6-28.9,45.8-62,59.5-94.7l-133.9-123.4C1175.1,1048.6,1143.7,1070.3,1117.1,1099.2z"/>
			<path class="st14" d="M1361.5,984.6c-27.6,3.5-91.5,14.7-154.8,47.5l133.9,123.4c27.6-65.8,33.5-130.4,34.7-158.2
				C1375.6,989.8,1369,983.7,1361.5,984.6z"/>
			
				<ellipse transform="matrix(0.6776 -0.7354 0.7354 0.6776 -463.278 1265.3606)" class="st17" cx="1211.6" cy="1161.1" rx="72.5" ry="72.5"/>
			
				<ellipse transform="matrix(0.6776 -0.7354 0.7354 0.6776 -463.278 1265.3606)" class="st9" cx="1211.6" cy="1161.1" rx="39" ry="39"/>
			
				<rect x="993" y="1328.9" transform="matrix(0.7354 0.6776 -0.6776 0.7354 1186.5992 -348.5308)" class="st18" width="93.2" height="32.6"/>
		</g>
		<g class="st4">
			<path class="st9" d="M1750.6,2233.2c-29.5-70.3-110.4-103.3-180.7-73.8c-70.3,29.5-103.3,110.4-73.8,180.7L1750.6,2233.2z"/>
			<path class="st18" d="M1806.5,2328.8l-281.4,118.2c-29.2,12.3-63.2-1.6-75.5-30.8l0,0c-12.3-29.2,1.6-63.2,30.8-75.5l281.4-118.2
				c29.2-12.3,63.2,1.6,75.5,30.8v0C1849.6,2282.5,1835.8,2316.5,1806.5,2328.8z"/>
			
				<ellipse transform="matrix(0.922 -0.3871 0.3871 0.922 -818.6403 754.9998)" class="st13" cx="1464.9" cy="2409.7" rx="28.6" ry="28.6"/>
			
				<ellipse transform="matrix(0.922 -0.3871 0.3871 0.922 -797.1613 786.6479)" class="st13" cx="1554.2" cy="2372.2" rx="28.6" ry="28.6"/>
			
				<ellipse transform="matrix(0.922 -0.3871 0.3871 0.922 -775.6823 818.2961)" class="st13" cx="1643.5" cy="2334.7" rx="28.6" ry="28.6"/>
			
				<ellipse transform="matrix(0.922 -0.3871 0.3871 0.922 -754.2032 849.9443)" class="st13" cx="1732.8" cy="2297.2" rx="28.6" ry="28.6"/>
			
				<ellipse transform="matrix(0.922 -0.3871 0.3871 0.922 -732.7241 881.5925)" class="st13" cx="1822.1" cy="2259.7" rx="28.6" ry="28.6"/>
		</g>
	</g>
</g>
</svg>
